<mxfile host="app.diagrams.net" agent="Mozilla/5.0 (Windows NT 10.0; Win64; x64) AppleWebKit/537.36 (KHTML, like Gecko) Chrome/130.0.0.0 Safari/537.36" version="25.0.3">
  <diagram name="Trang-1" id="8QVaqMfVCn6Bh1Eaejip">
    <mxGraphModel grid="0" page="1" gridSize="10" guides="1" tooltips="1" connect="1" arrows="1" fold="1" pageScale="1" pageWidth="827" pageHeight="1169" math="0" shadow="0">
      <root>
        <mxCell id="0" />
        <mxCell id="1" parent="0" />
        <mxCell id="qmHPQBVpbL-yycSQukmX-1" value="System" style="swimlane;whiteSpace=wrap;html=1;fillColor=default;strokeColor=default;" vertex="1" parent="1">
          <mxGeometry x="390" y="184" width="256" height="173" as="geometry" />
        </mxCell>
        <mxCell id="qmHPQBVpbL-yycSQukmX-2" value="&lt;b&gt;&lt;font style=&quot;font-size: 18px;&quot;&gt;Koi Fram Shop&lt;/font&gt;&lt;/b&gt;" style="ellipse;whiteSpace=wrap;html=1;" vertex="1" parent="qmHPQBVpbL-yycSQukmX-1">
          <mxGeometry x="38.5" y="59" width="179" height="88" as="geometry" />
        </mxCell>
        <mxCell id="qmHPQBVpbL-yycSQukmX-5" value="Staff" style="shape=umlActor;verticalLabelPosition=bottom;verticalAlign=top;html=1;outlineConnect=0;" vertex="1" parent="1">
          <mxGeometry x="237" y="262" width="30" height="60" as="geometry" />
        </mxCell>
        <mxCell id="qmHPQBVpbL-yycSQukmX-6" value="Customer" style="shape=umlActor;verticalLabelPosition=bottom;verticalAlign=top;html=1;outlineConnect=0;" vertex="1" parent="1">
          <mxGeometry x="237" y="405" width="30" height="60" as="geometry" />
        </mxCell>
        <mxCell id="qmHPQBVpbL-yycSQukmX-7" value="Guest" style="shape=umlActor;verticalLabelPosition=bottom;verticalAlign=top;html=1;outlineConnect=0;" vertex="1" parent="1">
          <mxGeometry x="769" y="250" width="30" height="60" as="geometry" />
        </mxCell>
        <mxCell id="qmHPQBVpbL-yycSQukmX-8" value="User" style="shape=umlActor;verticalLabelPosition=bottom;verticalAlign=top;html=1;outlineConnect=0;" vertex="1" parent="1">
          <mxGeometry x="49" y="262" width="35" height="71" as="geometry" />
        </mxCell>
        <mxCell id="qmHPQBVpbL-yycSQukmX-19" value="Use" style="endArrow=open;endSize=12;dashed=1;html=1;rounded=0;entryX=0;entryY=0.5;entryDx=0;entryDy=0;" edge="1" parent="1" target="qmHPQBVpbL-yycSQukmX-2">
          <mxGeometry width="160" relative="1" as="geometry">
            <mxPoint x="276" y="294" as="sourcePoint" />
            <mxPoint x="445" y="354" as="targetPoint" />
          </mxGeometry>
        </mxCell>
        <mxCell id="qmHPQBVpbL-yycSQukmX-21" value="Use" style="endArrow=open;endSize=12;dashed=1;html=1;rounded=0;entryX=0.036;entryY=0.695;entryDx=0;entryDy=0;entryPerimeter=0;" edge="1" parent="1" target="qmHPQBVpbL-yycSQukmX-2">
          <mxGeometry width="160" relative="1" as="geometry">
            <mxPoint x="276" y="434" as="sourcePoint" />
            <mxPoint x="430.35699999999997" y="352.004" as="targetPoint" />
          </mxGeometry>
        </mxCell>
        <mxCell id="qmHPQBVpbL-yycSQukmX-23" value="" style="endArrow=block;dashed=1;endFill=0;endSize=12;html=1;rounded=0;" edge="1" parent="1">
          <mxGeometry width="160" relative="1" as="geometry">
            <mxPoint x="226" y="301" as="sourcePoint" />
            <mxPoint x="100" y="301" as="targetPoint" />
          </mxGeometry>
        </mxCell>
        <mxCell id="qmHPQBVpbL-yycSQukmX-24" value="" style="endArrow=block;dashed=1;endFill=0;endSize=12;html=1;rounded=0;" edge="1" parent="1">
          <mxGeometry width="160" relative="1" as="geometry">
            <mxPoint x="232" y="435" as="sourcePoint" />
            <mxPoint x="107" y="341" as="targetPoint" />
          </mxGeometry>
        </mxCell>
        <mxCell id="qmHPQBVpbL-yycSQukmX-27" value="Visit" style="endArrow=open;endSize=12;dashed=1;html=1;rounded=0;entryX=0.983;entryY=0.395;entryDx=0;entryDy=0;entryPerimeter=0;" edge="1" parent="1" target="qmHPQBVpbL-yycSQukmX-2">
          <mxGeometry width="160" relative="1" as="geometry">
            <mxPoint x="760" y="289" as="sourcePoint" />
            <mxPoint x="675" y="309" as="targetPoint" />
          </mxGeometry>
        </mxCell>
        <mxCell id="foCkAU-7LVMuDkpDZM8B-1" value="Manager" style="shape=umlActor;verticalLabelPosition=bottom;verticalAlign=top;html=1;" vertex="1" parent="1">
          <mxGeometry x="235" y="148" width="30" height="60" as="geometry" />
        </mxCell>
        <mxCell id="foCkAU-7LVMuDkpDZM8B-3" value="" style="endArrow=block;dashed=1;endFill=0;endSize=12;html=1;rounded=0;" edge="1" parent="1">
          <mxGeometry width="160" relative="1" as="geometry">
            <mxPoint x="223" y="188" as="sourcePoint" />
            <mxPoint x="90" y="271" as="targetPoint" />
          </mxGeometry>
        </mxCell>
        <mxCell id="foCkAU-7LVMuDkpDZM8B-4" value="Use" style="endArrow=open;endSize=12;dashed=1;html=1;rounded=0;entryX=0.107;entryY=0.159;entryDx=0;entryDy=0;entryPerimeter=0;" edge="1" parent="1" target="qmHPQBVpbL-yycSQukmX-2">
          <mxGeometry width="160" relative="1" as="geometry">
            <mxPoint x="276" y="195" as="sourcePoint" />
            <mxPoint x="467" y="115" as="targetPoint" />
          </mxGeometry>
        </mxCell>
      </root>
    </mxGraphModel>
  </diagram>
</mxfile>
